<?xml version="1.0" encoding="UTF-8"?>
<svg width="542px" height="441px" viewBox="0 0 542 441" version="1.1" xmlns="http://www.w3.org/2000/svg" xmlns:xlink="http://www.w3.org/1999/xlink">
    <!-- Generator: Sketch 51.3 (57544) - http://www.bohemiancoding.com/sketch -->
    <title>Group 9</title>
    <desc>Created with Sketch.</desc>
    <defs>
        <linearGradient x1="50%" y1="100%" x2="50%" y2="0%" id="linearGradient-1">
            <stop stop-color="#808080" stop-opacity="0.25" offset="0%"></stop>
            <stop stop-color="#808080" stop-opacity="0.12" offset="54%"></stop>
            <stop stop-color="#808080" stop-opacity="0.1" offset="100%"></stop>
        </linearGradient>
        <linearGradient x1="50.0005735%" y1="100%" x2="50.0005735%" y2="0%" id="linearGradient-2">
            <stop stop-color="#808080" stop-opacity="0.25" offset="0%"></stop>
            <stop stop-color="#808080" stop-opacity="0.12" offset="54%"></stop>
            <stop stop-color="#808080" stop-opacity="0.1" offset="100%"></stop>
        </linearGradient>
        <linearGradient x1="50.0328535%" y1="99.9720746%" x2="50.0328535%" y2="-0.0194486061%" id="linearGradient-3">
            <stop stop-color="#F68B24" offset="0%"></stop>
            <stop stop-color="#B3B3B3" stop-opacity="0.1" offset="54%"></stop>
            <stop stop-color="#B3B3B3" stop-opacity="0.05" offset="100%"></stop>
        </linearGradient>
    </defs>
    <g id="Page-1" stroke="none" stroke-width="1" fill="none" fill-rule="evenodd">
        <g id="Group-9" fill-rule="nonzero">
            <rect id="Rectangle-path" fill="#F7F7F7" x="0" y="0" width="541.97" height="440.48"></rect>
            <g id="Group-7" transform="translate(20.000000, 116.000000)">
                <rect id="Rectangle-path" fill="#BDBDBD" x="0" y="0" width="46" height="4"></rect>
                <g id="Group-8" transform="translate(0.000000, 16.000000)">
                    <rect id="Rectangle-path" fill="#DEDEDE" x="19" y="4" width="44" height="4"></rect>
                    <g id="Group-6">
                        <rect id="Rectangle-path" fill="url(#linearGradient-1)" x="0" y="0" width="12" height="12"></rect>
                        <rect id="Rectangle-path" fill="#FFFFFF" x="1" y="0" width="11" height="11"></rect>
                        <polygon id="Shape" fill="#FFFFFF" points="3.75 5 5.55 6.57142857 8.1 3 9 3.71428571 5.55 8 3 5.28571429"></polygon>
                    </g>
                </g>
                <g id="Group-8-Copy" transform="translate(0.000000, 35.000000)">
                    <rect id="Rectangle-path" fill="#DEDEDE" x="19" y="4" width="44" height="4"></rect>
                    <g id="Group-6">
                        <rect id="Rectangle-path" fill="url(#linearGradient-1)" x="0" y="0" width="12" height="12"></rect>
                        <rect id="Rectangle-path" fill="#1C7ECE" x="1" y="0" width="11" height="11"></rect>
                        <polygon id="Shape" fill="#FFFFFF" points="3.75 5 5.55 6.57142857 8.1 3 9 3.71428571 5.55 8 3 5.28571429"></polygon>
                    </g>
                </g>
                <g id="Group-8-Copy-2" transform="translate(0.000000, 54.000000)">
                    <rect id="Rectangle-path" fill="#DEDEDE" x="19" y="4" width="44" height="4"></rect>
                    <g id="Group-6">
                        <rect id="Rectangle-path" fill="url(#linearGradient-1)" x="0" y="0" width="12" height="12"></rect>
                        <rect id="Rectangle-path" fill="#FFFFFF" x="1" y="0" width="11" height="11"></rect>
                        <polygon id="Shape" fill="#FFFFFF" points="3.75 5 5.55 6.57142857 8.1 3 9 3.71428571 5.55 8 3 5.28571429"></polygon>
                    </g>
                </g>
                <g id="Group-8-Copy-3" transform="translate(0.000000, 73.000000)">
                    <rect id="Rectangle-path" fill="#DEDEDE" x="19" y="4" width="44" height="4"></rect>
                    <g id="Group-6">
                        <rect id="Rectangle-path" fill="url(#linearGradient-1)" x="0" y="0" width="12" height="12"></rect>
                        <rect id="Rectangle-path" fill="#FFFFFF" x="1" y="0" width="11" height="11"></rect>
                        <polygon id="Shape" fill="#FFFFFF" points="3.75 5 5.55 6.57142857 8.1 3 9 3.71428571 5.55 8 3 5.28571429"></polygon>
                    </g>
                </g>
            </g>
            <g id="Group-7-Copy" transform="translate(20.000000, 222.000000)">
                <rect id="Rectangle-path" fill="#BDBDBD" x="0" y="0" width="66" height="4"></rect>
                <g id="Group-8" transform="translate(0.000000, 16.000000)">
                    <rect id="Rectangle-path" fill="#DEDEDE" x="19" y="4" width="44" height="4"></rect>
                    <g id="Group-6">
                        <rect id="Rectangle-path" fill="url(#linearGradient-1)" x="0" y="0" width="12" height="12"></rect>
                        <rect id="Rectangle-path" fill="#FFFFFF" x="1" y="0" width="11" height="11"></rect>
                        <polygon id="Shape" fill="#FFFFFF" points="3.75 5 5.55 6.57142857 8.1 3 9 3.71428571 5.55 8 3 5.28571429"></polygon>
                    </g>
                </g>
                <g id="Group-8-Copy" transform="translate(0.000000, 35.000000)">
                    <rect id="Rectangle-path" fill="#DEDEDE" x="19" y="4" width="44" height="4"></rect>
                    <g id="Group-6">
                        <rect id="Rectangle-path" fill="url(#linearGradient-1)" x="0" y="0" width="12" height="12"></rect>
                        <rect id="Rectangle-path" fill="#1C7ECE" x="1" y="0" width="11" height="11"></rect>
                        <polygon id="Shape" fill="#FFFFFF" points="3.75 5 5.55 6.57142857 8.1 3 9 3.71428571 5.55 8 3 5.28571429"></polygon>
                    </g>
                </g>
                <g id="Group-8-Copy-2" transform="translate(0.000000, 54.000000)">
                    <rect id="Rectangle-path" fill="#DEDEDE" x="19" y="4" width="44" height="4"></rect>
                    <g id="Group-6">
                        <rect id="Rectangle-path" fill="url(#linearGradient-1)" x="0" y="0" width="12" height="12"></rect>
                        <rect id="Rectangle-path" fill="#1C7ECE" x="1" y="0" width="11" height="11"></rect>
                        <polygon id="Shape" fill="#FFFFFF" points="3.75 5 5.55 6.57142857 8.1 3 9 3.71428571 5.55 8 3 5.28571429"></polygon>
                    </g>
                </g>
                <g id="Group-8-Copy-3" transform="translate(0.000000, 73.000000)">
                    <rect id="Rectangle-path" fill="#DEDEDE" x="19" y="4" width="44" height="4"></rect>
                    <g id="Group-6">
                        <rect id="Rectangle-path" fill="url(#linearGradient-1)" x="0" y="0" width="12" height="12"></rect>
                        <rect id="Rectangle-path" fill="#FFFFFF" x="1" y="0" width="11" height="11"></rect>
                        <polygon id="Shape" fill="#FFFFFF" points="3.75 5 5.55 6.57142857 8.1 3 9 3.71428571 5.55 8 3 5.28571429"></polygon>
                    </g>
                </g>
            </g>
            <rect id="Rectangle-path" fill="#F68B24" x="0" y="0" width="541.97" height="72.3808081"></rect>
            <rect id="Rectangle-path" fill="url(#linearGradient-2)" x="33" y="14" width="259.015276" height="41.5754442"></rect>
            <rect id="Rectangle-path" fill="#FFFFFF" x="35" y="15" width="255.610894" height="38.0040251"></rect>
            <rect id="Rectangle-path" fill="#F5F5F5" x="76" y="23" width="168" height="22.6172686"></rect>
            <g id="Group-2" transform="translate(261.000000, 26.000000)">
                <path d="M12.1768687,2.89214696 C9.58000888,0.538931117 5.32615985,0.357404521 2.47748744,2.47824048 C-0.37118496,4.59907644 -0.826155059,8.28631781 1.44009086,10.8856756 C3.70633677,13.4850335 7.90738246,14.0944974 11.019073,12.2753402 L16.1329254,16.9077515 C16.1961981,16.9652683 16.2831927,16.9984492 16.374646,16.999947 C16.4660993,17.0014448 16.5544653,16.9711359 16.6201772,16.9157316 L17.894058,15.8517267 C17.9601127,15.7966323 17.998219,15.7208822 17.9999391,15.6412497 C18.0016593,15.5616173 17.9668512,15.484673 17.9032226,15.4274547 L12.7893702,10.7950434 C14.8148787,8.38040125 14.5566004,5.04792474 12.1768687,2.89214696 Z M10.583754,10.3401813 C8.56899998,12.0265024 5.3658009,11.9714874 3.42898287,10.217298 C1.49216483,8.46310867 1.55506661,5.67393487 3.56948235,3.98730741 C5.58389809,2.30067996 8.78710816,2.35520778 10.724278,4.10910256 C12.656816,5.86261648 12.5939437,8.6475058 10.583754,10.3335312 L10.583754,10.3401813 Z" id="Shape" fill="url(#linearGradient-3)"></path>
                <path d="M3.5,5 C2.83333333,5 2.83333333,6 3.5,6 C4.16666667,6 4.16666667,5 3.5,5 Z" id="Shape" fill="url(#linearGradient-3)"></path>
                <path d="M6.41229411,3.00140849 C5.06540446,2.9689489 3.7930335,3.49934544 3.04653482,4.40444829 C2.82495566,4.68505625 3.45463313,4.93285119 3.67621229,4.65337471 C4.23717217,3.94167145 5.31000794,3.49020945 6.4669877,3.51397061 C7.65458447,3.54704504 8.74324492,4.05648112 9.3685527,4.87175107 C9.59013185,5.16706832 10.1721277,4.89890668 9.95054858,4.60585239 C9.24514152,3.66672091 7.86518021,3.02743261 6.41229411,3.00140849 Z" id="Shape" fill="url(#linearGradient-3)"></path>
                <path d="M12.1768687,1.89214696 C9.58000888,-0.461068883 5.32615985,-0.642595479 2.47748744,1.47824048 C-0.37118496,3.59907644 -0.826155059,7.28631781 1.44009086,9.88567564 C3.70633677,12.4850335 7.90738246,13.0944974 11.019073,11.2753402 L16.1329254,15.9077515 C16.1961981,15.9652683 16.2831927,15.9984492 16.374646,15.999947 C16.4660993,16.0014448 16.5544653,15.9711359 16.6201772,15.9157316 L17.894058,14.8517267 C17.9601127,14.7966323 17.998219,14.7208822 17.9999391,14.6412497 C18.0016593,14.5616173 17.9668512,14.484673 17.9032226,14.4274547 L12.7893702,9.79504337 C14.8148787,7.38040125 14.5566004,4.04792474 12.1768687,1.89214696 Z M10.583754,9.34018127 C8.56899998,11.0265024 5.3658009,10.9714874 3.42898287,9.21729803 C1.49216483,7.46310867 1.55506661,4.67393487 3.56948235,2.98730741 C5.58389809,1.30067996 8.78710816,1.35520778 10.724278,3.10910256 C12.6609034,4.8632682 12.5979924,7.65225563 10.583754,9.33885127 L10.583754,9.34018127 Z" id="Shape" fill="#F68B24"></path>
                <path d="M6.41229411,2.00140849 C5.06540446,1.9689489 3.7930335,2.49934544 3.04653482,3.40444829 C2.82495566,3.68505625 3.45463313,3.93285119 3.67621229,3.65337471 C4.23717217,2.94167145 5.31000794,2.49020945 6.4669877,2.51397061 C7.65458447,2.54704504 8.74324492,3.05648112 9.3685527,3.87175107 C9.59013185,4.16706832 10.1721277,3.89890668 9.95054858,3.60585239 C9.24514152,2.66672091 7.86518021,2.02743261 6.41229411,2.00140849 Z" id="Shape" fill="#F68B24"></path>
                <path d="M3.5,5 C2.83333333,5 2.83333333,6 3.5,6 C4.16666667,6 4.16666667,5 3.5,5 Z" id="Shape" fill="#F68B24"></path>
            </g>
            <g id="undraw_Posts_rskc" transform="translate(164.000000, 104.000000)">
                <g id="Group-5">
                    <g id="Group-4">
                        <rect id="Rectangle-path" fill="url(#linearGradient-1)" x="0" y="0" width="336" height="48" rx="9"></rect>
                        <rect id="Rectangle-path" fill="#FFFFFF" x="3" y="2" width="330" height="43" rx="8"></rect>
                        <rect id="Rectangle-path" fill="#E7E7E7" x="19" y="8" width="35" height="30" rx="6"></rect>
                        <rect id="Rectangle-path" fill="#BDBDBD" x="65" y="12" width="66" height="4"></rect>
                        <rect id="Rectangle-path" fill="#F68B24" x="65" y="21" width="94" height="4"></rect>
                    </g>
                    <g id="Group-4-Copy" transform="translate(0.000000, 63.000000)">
                        <rect id="Rectangle-path" fill="url(#linearGradient-1)" x="0" y="0" width="336" height="48" rx="9"></rect>
                        <rect id="Rectangle-path" fill="#FFFFFF" x="3" y="2" width="330" height="43" rx="8"></rect>
                        <rect id="Rectangle-path" fill="#E7E7E7" x="19" y="8" width="35" height="30" rx="6"></rect>
                        <rect id="Rectangle-path" fill="#BDBDBD" x="65" y="12" width="66" height="4"></rect>
                        <rect id="Rectangle-path" fill="#F68B24" x="65" y="21" width="94" height="4"></rect>
                    </g>
                    <g id="Group-4-Copy-2" transform="translate(0.000000, 126.000000)">
                        <rect id="Rectangle-path" fill="url(#linearGradient-1)" x="0" y="0" width="336" height="48" rx="9"></rect>
                        <rect id="Rectangle-path" fill="#FFFFFF" x="3" y="2" width="330" height="43" rx="8"></rect>
                        <rect id="Rectangle-path" fill="#E7E7E7" x="19" y="8" width="35" height="30" rx="6"></rect>
                        <rect id="Rectangle-path" fill="#BDBDBD" x="65" y="12" width="66" height="4"></rect>
                        <rect id="Rectangle-path" fill="#F68B24" x="65" y="21" width="94" height="4"></rect>
                    </g>
                    <g id="Group-4-Copy-3" transform="translate(0.000000, 189.000000)">
                        <rect id="Rectangle-path" fill="url(#linearGradient-1)" x="0" y="0" width="336" height="48" rx="9"></rect>
                        <rect id="Rectangle-path" fill="#FFFFFF" x="3" y="2" width="330" height="43" rx="8"></rect>
                        <rect id="Rectangle-path" fill="#E7E7E7" x="19" y="8" width="35" height="30" rx="6"></rect>
                        <rect id="Rectangle-path" fill="#BDBDBD" x="65" y="12" width="66" height="4"></rect>
                        <rect id="Rectangle-path" fill="#F68B24" x="65" y="21" width="94" height="4"></rect>
                    </g>
                    <g id="Group-4-Copy-4" transform="translate(0.000000, 252.000000)">
                        <rect id="Rectangle-path" fill="url(#linearGradient-1)" x="0" y="0" width="336" height="48" rx="9"></rect>
                        <rect id="Rectangle-path" fill="#FFFFFF" x="3" y="2" width="330" height="43" rx="8"></rect>
                        <rect id="Rectangle-path" fill="#E7E7E7" x="19" y="8" width="35" height="30" rx="6"></rect>
                        <rect id="Rectangle-path" fill="#BDBDBD" x="65" y="12" width="66" height="4"></rect>
                        <rect id="Rectangle-path" fill="#F68B24" x="65" y="21" width="94" height="4"></rect>
                    </g>
                </g>
            </g>
            <g id="Group" transform="translate(42.000000, 22.000000)" fill="#363636">
                <path d="M13.9151325,16.7447188 C13.021823,16.8715089 11.6160092,16.8512225 9.61856924,18.466781 C7.90571215,19.8523424 7.22960451,20.451045 5.83629698,20.8240612 C4.50960482,21.1793269 2.57826976,21.1057887 2.02926729,20.1393951 C1.48843222,19.187202 1.7559146,17.6603964 2.51471718,16.9265357 C4.05988731,15.432442 5.6691205,14.6813379 11.002178,15.9388414 C12.8258054,16.3686596 13.4452517,16.5390654 13.9151325,16.7447188" id="Fill-17"></path>
                <g id="Group-21" transform="translate(0.000000, 0.500000)">
                    <path d="M16.9242071,11.1772003 C16.5857705,11.3886861 16.2187479,11.6371946 15.8484073,11.8991428 C14.7248792,7.05373502 15.4188531,3.02891235 15.3820998,2.01053484 C15.3274803,0.489815239 14.4773049,0.328031162 13.6347865,0.0843407271 C12.7103388,-0.182932653 8.56078874,0.257535906 5.69734908,1.35832694 C-0.152296501,3.60732846 -0.0823631322,6.2364465 0.0281520096,6.90006551 C0.181801237,7.66866666 0.458216707,7.95039411 1.28210326,8.87494699 C3.18510764,11.0111054 4.94620343,13.8222939 4.94620343,13.8222939 C5.54650739,13.6384484 6.15140551,13.5248445 6.74711531,13.4637317 C6.10750573,11.9029465 4.67310597,9.46375989 3.98347107,8.49483049 C2.84590528,6.89702255 2.85943254,7.05322786 2.63942318,6.6102235 C2.53018419,6.39214465 2.53630974,6.19511295 2.9342153,5.85658357 C3.27954321,5.56268429 3.98704431,5.23581959 4.34207101,5.15619545 C4.66646996,5.08367156 5.0161368,5.28628202 5.2609036,5.79090634 C5.91199858,7.13335916 7.40382538,10.0043926 8.63429535,13.4312735 C10.462517,13.5395521 12.0301475,14.009436 12.8445905,14.2389259 C12.8430591,14.2412082 12.8361678,14.2478012 12.8371887,14.2478012 C14.7225822,14.7257997 15.4617319,14.8665366 17.4336488,14.92486 C19.202912,14.9770975 21.2304692,14.2138215 21.4492024,12.1823917 C21.617655,10.6167884 20.6664081,8.84096727 16.9242071,11.1772003" id="Fill-19"></path>
                </g>
            </g>
        </g>
    </g>
</svg>